# 3ds Max Wavefront OBJ Exporter v0.97b - (c)2007 guruware
# File Created: 21.04.2015 19:40:22

mtllib actual hall.mtl

#
# object Box010
#

v  -127.8310 54.8502 -26.8813
v  -123.9261 54.8502 -25.3107
v  168.7040 54.8502 -25.3107
v  172.6089 54.8502 -26.8813
v  172.6089 48.4553 -26.8813
v  168.7040 48.4553 -25.3107
v  -123.9261 48.4553 -25.3107
v  -127.8310 48.4553 -26.8813
v  -98.5242 58.0315 35.0934
v  143.3021 58.0315 35.0934
v  105.7522 59.6221 19.9901
v  -60.9743 59.6221 19.9901
v  143.3021 58.0315 -15.0934
v  105.7522 59.6221 0.0099
v  -98.5242 58.0315 -15.0934
v  -60.9743 59.6221 0.0099
v  138.3727 55.7901 33.5756
v  162.7390 52.7317 43.1748
v  -117.9612 52.7317 43.1748
v  -93.5948 55.7901 33.5756
v  -93.5948 55.7901 -13.5756
v  138.3727 55.7901 -13.5756
v  102.3537 57.3193 0.6142
v  -57.5758 57.3193 0.6142
v  102.3537 57.3193 19.3858
v  -117.9612 52.7317 -23.1748
v  -123.9261 54.8502 45.3107
v  168.7040 54.8502 45.3107
v  162.7390 52.7317 -23.1748
v  -57.5758 57.3193 19.3858
v  -127.8310 54.8502 46.8813
v  -127.8310 48.4553 46.8813
v  172.6089 48.4553 46.8813
v  172.6089 54.8502 46.8813
v  168.7040 48.4553 45.3107
v  -123.9261 48.4553 45.3107
v  -123.9261 0.0000 45.3107
v  168.7040 0.0000 45.3107
v  168.7040 0.0000 -25.3107
v  -123.9261 0.0000 -25.3107
v  168.7040 16.7504 -3.8074
v  168.7040 0.0000 -3.8074
v  -117.9612 0.0000 -23.1748
v  -117.9612 0.0000 26.1117
v  -123.9261 0.0000 26.1117
v  162.7390 16.7504 -3.8074
v  162.7390 16.7504 -16.5536
v  168.7040 16.7504 -16.5536
v  162.7390 0.0000 -3.8074
v  168.7040 0.0000 -16.5536
v  162.7390 0.0000 -16.5536
v  162.7390 0.0000 43.1748
v  162.7390 46.5838 43.1748
v  -117.9612 46.5838 43.1748
v  -117.9612 46.5838 -23.1748
v  -121.7068 46.5838 -24.6504
v  -121.7068 46.5838 44.6504
v  166.4847 46.5838 44.6504
v  -121.7068 52.7317 44.6504
v  166.4847 52.7317 44.6504
v  -121.7068 52.7317 -24.6504
v  166.4847 52.7317 -24.6504
v  166.4847 46.5838 -24.6504
v  162.7390 46.5838 -23.1748
v  162.7390 0.0000 -23.1748
v  -117.9612 16.7504 26.1117
v  -123.9261 16.7504 26.1117
v  -123.9261 16.7504 38.8579
v  -117.9612 16.7504 38.8579
v  -123.9261 0.0000 38.8579
v  -117.9612 0.0000 38.8579
v  130.1397 45.8633 -22.9412
v  132.7908 45.8633 -22.9412
v  132.7908 0.0000 -22.9412
v  130.1397 0.0000 -22.9412
v  130.1397 45.8633 43.1748
v  132.7908 45.8633 43.1748
v  77.3336 0.0000 -22.9412
v  74.6825 0.0000 -22.9412
v  74.6825 45.8633 -22.9412
v  77.3336 45.8633 -22.9412
v  74.6825 45.8633 43.1748
v  77.3336 45.8633 43.1748
v  22.6046 0.0000 -22.9412
v  19.9535 0.0000 -22.9412
v  19.9535 45.8633 -22.9412
v  22.6046 45.8633 -22.9412
v  19.9535 45.8633 43.1748
v  22.6046 45.8633 43.1748
v  -25.9115 0.0000 -22.9412
v  -28.5626 0.0000 -22.9412
v  -28.5626 45.8633 -22.9412
v  -25.9115 45.8633 -22.9412
v  -28.5626 45.8633 43.1748
v  -25.9115 45.8633 43.1748
v  -82.4947 45.8633 43.1748
v  -85.1458 45.8633 43.1748
v  -82.4947 0.0000 -22.9412
v  -85.1458 0.0000 -22.9412
v  -85.1458 45.8633 -22.9412
v  -82.4947 45.8633 -22.9412
v  -82.4947 0.0000 -13.1923
v  -85.1458 0.0000 -13.1923
v  -82.4947 16.3961 -13.1923
v  -85.1458 16.3961 -2.1502
v  -85.1458 0.0000 -2.1502
v  -85.1458 0.0000 43.1748
v  -85.1458 16.3961 -13.1923
v  -82.4947 16.3961 -2.1502
v  -82.4947 0.0000 -2.1502
v  -25.9115 0.0000 10.3947
v  -28.5626 0.0000 10.3947
v  -25.9115 16.3961 10.3947
v  -28.5626 16.3961 10.3947
v  -25.9115 16.3961 21.4369
v  -28.5626 16.3961 21.4369
v  -25.9115 0.0000 21.4369
v  -28.5626 0.0000 21.4369
v  19.9535 0.0000 24.8465
v  22.6046 0.0000 24.8465
v  22.6046 16.3961 24.8465
v  19.9535 16.3961 24.8465
v  22.6046 16.3961 35.8886
v  19.9535 16.3961 35.8886
v  22.6046 0.0000 35.8886
v  19.9535 0.0000 35.8886
v  77.3336 0.0000 -17.4705
v  74.6825 0.0000 -17.4705
v  77.3336 16.3961 -6.4283
v  77.3336 0.0000 43.1748
v  77.3336 0.0000 -6.4283
v  74.6825 16.3961 -6.4283
v  74.6825 0.0000 -6.4283
v  74.6825 0.0000 43.1748
v  77.3336 16.3961 -17.4705
v  74.6825 16.3961 -17.4705
v  132.7908 0.0000 -3.4342
v  130.1397 0.0000 -3.4342
v  132.7908 16.3961 7.6080
v  132.7908 0.0000 43.1748
v  132.7908 0.0000 7.6080
v  130.1397 16.3961 -3.4342
v  132.7908 16.3961 -3.4342
v  130.1397 16.3961 7.6080
v  130.1397 0.0000 7.6080
v  -117.9612 0.0000 43.1748
v  -25.9115 0.0000 43.1748
v  19.9535 0.0000 43.1748
v  22.6046 0.0000 43.1748
v  130.1397 0.0000 43.1748
v  -82.4947 0.0000 43.1748
v  -28.5626 0.0000 43.1748
# 152 vertices

vn 0.0000 1.0000 -0.0000
vn 0.0000 -1.0000 -0.0000
vn 0.0000 0.9914 0.1312
vn 0.1312 0.9914 -0.0000
vn 0.0000 0.9914 -0.1312
vn -0.1312 0.9914 -0.0000
vn 0.0000 -0.9283 -0.3717
vn 0.0000 -0.9910 0.1342
vn -0.1315 -0.9913 -0.0000
vn 0.3651 -0.9310 -0.0000
vn 0.0000 0.9312 0.3644
vn 0.3644 0.9312 -0.0000
vn 0.0000 0.9312 -0.3644
vn -0.3644 0.9312 -0.0000
vn -0.3651 -0.9310 -0.0000
vn 0.1315 -0.9913 -0.0000
vn 0.0000 -0.9910 -0.1342
vn 0.0000 -0.9283 0.3717
vn 0.0000 0.0000 1.0000
vn 1.0000 0.0000 -0.0000
vn 0.0000 0.0000 -1.0000
vn -1.0000 0.0000 -0.0000
# 22 vertex normals

vt -0.6267 1.0000 0.0000
vt -0.6000 1.0000 0.0000
vt 0.4000 1.0000 0.0000
vt 1.6267 0.5000 0.0000
vt 1.6000 0.5000 0.0000
vt 0.6000 0.5000 0.0000
vt 0.0000 0.0000 0.0000
vt 1.0000 0.0000 0.0000
vt 0.3106 0.0000 0.0000
vt 1.0000 1.0000 0.0000
vt 1.0000 0.6019 0.0000
vt 0.0000 1.0000 0.0000
vt 0.6894 1.0000 0.0000
vt 0.0000 0.3981 0.0000
vt 0.1736 0.0000 0.0000
vt 0.0000 0.7106 0.0000
vt 1.0000 0.2894 0.0000
vt 0.8264 1.0000 0.0000
vt 1.0000 -0.0000 0.0000
vt 0.0000 0.5000 0.0000
vt 1.0000 0.5000 0.0000
vt 0.6955 0.1728 0.0000
vt 0.6955 0.0000 0.0000
vt 0.9796 0.9698 0.0000
vt 0.9796 0.2719 0.0000
vt 1.0000 0.2719 0.0000
vt 0.1604 -0.0000 0.0000
vt 0.1604 1.0000 0.0000
vt 0.5209 1.0000 0.0000
vt 0.5209 0.0000 0.0000
vt 0.1604 0.0000 0.0000
vt 0.4791 0.0000 0.0000
vt 0.4791 1.0000 0.0000
vt 0.8396 1.0000 0.0000
vt 0.8396 0.0000 0.0000
vt 0.7081 0.1798 0.0000
vt 0.7081 0.0000 0.0000
vt 0.3896 0.5000 0.0000
vt 0.9740 0.5000 0.0000
vt -0.0000 0.5000 0.0000
vt -0.0000 0.0000 0.0000
vt 0.7428 0.1798 0.0000
vt 0.7428 0.0000 0.0000
vt 0.0000 -0.0000 0.0000
vt 0.7281 0.1728 0.0000
vt 0.7281 0.0000 0.0000
vt 0.1635 0.0000 0.0000
vt 0.1635 1.0000 0.0000
vt 0.4654 1.0000 0.0000
vt 0.4654 0.0000 0.0000
vt 0.5346 0.0000 0.0000
vt 0.5346 1.0000 0.0000
vt 0.8365 1.0000 0.0000
vt 0.8365 0.0000 0.0000
vt 0.0000 0.0024 0.0000
vt 1.0000 0.0024 0.0000
vt -0.0000 1.0000 0.0000
vt -0.0000 0.0024 0.0000
vt 0.3185 0.4923 0.0000
vt 0.1263 0.4923 0.0000
vt 0.1169 0.4923 0.0000
vt 0.8584 0.9664 0.0000
vt 0.8584 0.8284 0.0000
vt 0.8675 0.8284 0.0000
vt 0.8675 0.9664 0.0000
vt 0.8529 0.3575 0.0000
vt 0.8529 0.0000 0.0000
vt 0.3137 0.3575 0.0000
vt 0.3137 0.0000 0.0000
vt 0.9976 0.0000 0.0000
vt 0.9976 1.0000 0.0000
vt 0.2047 1.0000 0.0000
vt 0.6598 1.0000 0.0000
vt 0.6598 0.0000 0.0000
vt 0.2047 0.0000 0.0000
vt 0.3402 1.0000 0.0000
vt 0.7953 1.0000 0.0000
vt 0.7953 0.0000 0.0000
vt 0.3402 0.0000 0.0000
vt 0.6651 0.4944 0.0000
vt 0.6741 0.4944 0.0000
vt 0.6741 0.9664 0.0000
vt 0.6651 0.9664 0.0000
vt 0.4970 0.3575 0.0000
vt 0.4970 0.0000 0.0000
vt 0.5030 0.3575 0.0000
vt 0.5030 0.0000 0.0000
vt 0.1557 1.0000 0.0000
vt 0.6109 1.0000 0.0000
vt 0.6109 0.0000 0.0000
vt 0.1557 0.0000 0.0000
vt 0.3891 1.0000 0.0000
vt 0.8443 1.0000 0.0000
vt 0.8443 0.0000 0.0000
vt 0.3891 0.0000 0.0000
vt 0.5083 0.2898 0.0000
vt 0.5083 0.9664 0.0000
vt 0.4993 0.9664 0.0000
vt 0.4993 0.2898 0.0000
vt 0.2789 0.3575 0.0000
vt 0.2789 0.0000 0.0000
vt 0.7211 0.3575 0.0000
vt 0.7211 0.0000 0.0000
vt 0.2794 1.0000 0.0000
vt 0.7345 1.0000 0.0000
vt 0.7345 0.0000 0.0000
vt 0.2794 0.0000 0.0000
vt 0.7206 1.0000 0.0000
vt 0.7206 -0.0000 0.0000
vt 0.2655 -0.0000 0.0000
vt 0.2655 1.0000 0.0000
vt 0.7206 0.0000 0.0000
vt 0.2655 0.0000 0.0000
vt 0.3122 0.8890 0.0000
vt 0.3213 0.8890 0.0000
vt 0.3213 0.9664 0.0000
vt 0.3122 0.9664 0.0000
vt 0.7508 0.3575 0.0000
vt 0.0024 1.0000 0.0000
vt 0.0024 0.0000 0.0000
vt 0.7508 0.0000 0.0000
vt 0.2492 0.3575 0.0000
vt 0.2492 0.0000 0.0000
vt 0.2120 1.0000 0.0000
vt 0.6672 1.0000 0.0000
vt 0.6672 0.0000 0.0000
vt 0.2120 -0.0000 0.0000
vt 0.3328 1.0000 0.0000
vt 0.7880 1.0000 0.0000
vt 0.7880 0.0000 0.0000
vt 0.3328 0.0000 0.0000
vt 0.1227 0.6902 0.0000
vt 0.1318 0.6902 0.0000
vt 0.1318 0.9664 0.0000
vt 0.1227 0.9664 0.0000
vt 0.0204 0.0302 0.0000
vt 0.0204 0.6955 0.0000
vt 0.0000 0.6955 0.0000
vt 0.5390 0.3575 0.0000
vt 0.5390 0.0000 0.0000
vt 0.2943 0.3575 0.0000
vt 0.2943 0.0000 0.0000
vt 0.1914 1.0000 0.0000
vt 0.6466 1.0000 0.0000
vt 0.6466 0.0000 0.0000
vt 0.1914 0.0000 0.0000
vt 0.8086 1.0000 0.0000
vt 0.8086 0.0000 0.0000
vt 0.3534 0.0000 0.0000
vt 0.3534 1.0000 0.0000
vt 1.0267 1.0000 0.0000
vt -0.0267 0.5000 0.0000
vt 0.8760 0.1728 0.0000
vt 0.8760 0.0000 0.0000
vt 0.0204 0.9698 0.0000
vt 0.0000 0.8760 0.0000
vt 0.0204 0.8760 0.0000
vt 0.9002 0.1798 0.0000
vt 0.9002 -0.0000 0.0000
vt -0.5844 0.5000 0.0000
vt -0.6104 0.5000 0.0000
vt 0.9349 0.1798 0.0000
vt 0.9349 0.0000 0.0000
vt 0.9086 0.1728 0.0000
vt 0.9086 0.0000 0.0000
vt 0.8933 0.4923 0.0000
vt 0.8933 -0.0000 0.0000
vt 0.8839 0.4923 0.0000
vt -0.0000 -0.0000 0.0000
vt 0.1169 0.0000 0.0000
vt 0.3279 -0.0000 0.0000
vt 0.3279 0.4923 0.0000
vt 0.4913 0.4923 0.0000
vt 0.4913 0.0000 0.0000
vt 0.5008 -0.0000 0.0000
vt 0.5008 0.4923 0.0000
vt 0.6863 0.4923 0.0000
vt 0.6863 -0.0000 0.0000
vt 0.6957 -0.0000 0.0000
vt 0.6957 0.4923 0.0000
vt 0.8839 -0.0000 0.0000
vt 0.1263 -0.0000 0.0000
vt 0.3185 0.0000 0.0000
vt 0.6863 0.3575 0.0000
vt 0.6863 0.0000 0.0000
vt 0.1471 0.3575 0.0000
vt 0.1471 0.0000 0.0000
vt 0.3304 0.3575 0.0000
vt 0.3304 0.0000 0.0000
vt 0.6696 0.3575 0.0000
vt 0.6696 0.0000 0.0000
vt 0.1123 0.3575 0.0000
vt 0.1123 0.0000 0.0000
vt 0.8877 0.3575 0.0000
vt 0.8877 0.0000 0.0000
vt 0.9175 0.3575 0.0000
vt 0.9175 0.0000 0.0000
vt 0.0825 0.3575 0.0000
vt 0.0825 0.0000 0.0000
vt 0.1227 0.5339 0.0000
vt 0.1227 0.0302 0.0000
vt 0.1318 0.0302 0.0000
vt 0.1318 0.5339 0.0000
vt 0.8584 0.0302 0.0000
vt 0.8675 0.0302 0.0000
vt 0.8675 0.6720 0.0000
vt 0.8584 0.6720 0.0000
vt 0.3122 0.0302 0.0000
vt 0.3213 0.0302 0.0000
vt 0.3213 0.7326 0.0000
vt 0.3122 0.7326 0.0000
vt 0.9796 0.0302 0.0000
vt 1.0000 0.0914 0.0000
vt 0.9796 0.0914 0.0000
vt 0.6741 0.0302 0.0000
vt 0.4993 0.1334 0.0000
vt 0.4993 0.0302 0.0000
vt 0.5083 0.0302 0.0000
vt 0.5083 0.1334 0.0000
vt 0.6651 0.3381 0.0000
vt 0.6651 0.0302 0.0000
vt 0.6741 0.3381 0.0000
vt 0.7057 0.3575 0.0000
vt 0.7057 0.0000 0.0000
vt 0.4610 0.3575 0.0000
vt 0.4610 0.0000 0.0000
# 226 texture coords

g Box010
usemtl wire_225087143
s off
f 1/1/1 2/2/1 3/3/1 4/3/1 
f 5/4/2 6/5/2 7/6/2 8/6/2 
f 9/7/3 10/8/3 11/8/3 12/9/3 
f 10/8/4 13/10/4 14/10/4 11/11/4 
f 13/10/5 15/12/5 16/12/5 14/13/5 
f 15/12/6 9/7/6 12/7/6 16/14/6 
f 17/8/7 18/8/7 19/7/7 20/15/7 
f 21/12/8 22/10/8 23/13/8 24/12/8 
f 22/10/9 17/8/9 25/11/9 23/10/9 
f 19/7/10 26/12/10 21/16/10 20/7/10 
f 10/8/11 9/15/11 27/7/11 28/8/11 
f 13/10/12 10/17/12 28/8/12 3/10/12 
f 15/12/13 13/18/13 3/10/13 2/12/13 
f 9/7/14 15/16/14 2/12/14 27/7/14 
f 17/17/15 22/10/15 29/10/15 18/19/15 
f 24/14/16 30/7/16 20/7/16 21/12/16 
f 20/7/17 30/9/17 25/8/17 17/8/17 
f 29/10/18 22/18/18 21/12/18 26/12/18 
s 4
f 11/8/1 14/10/1 16/12/1 12/7/1 
s 8
f 31/12/19 32/20/19 33/21/19 34/10/19 
s 16
f 34/12/20 33/20/20 5/21/20 4/10/20 
s 32
f 4/12/21 5/20/21 8/21/21 1/10/21 
s 64
f 1/12/22 8/20/22 32/21/22 31/10/22 
s 8
f 35/21/19 36/20/19 37/7/19 38/8/19 
s 32
f 7/21/21 6/20/21 39/7/21 40/8/21 
s 16
f 41/22/20 35/20/20 38/7/20 42/23/20 
s 2
f 43/24/2 44/25/2 45/26/2 40/10/2 
s 1
f 46/27/2 47/28/2 48/29/2 41/30/2 
s 4
f 49/31/21 46/28/21 41/29/21 42/30/21 
f 50/32/19 48/33/19 47/34/19 51/35/19 
s 16
f 46/36/22 49/37/22 52/7/22 53/20/22 
s off
f 54/38/1 55/39/1 56/21/1 57/38/1 
s 1
f 58/21/21 57/20/21 59/12/21 60/10/21 
s 2
f 59/10/20 57/21/20 56/20/20 61/12/20 
s 1
f 25/8/2 30/7/2 24/12/2 23/10/2 
s off
f 26/2/2 19/12/2 59/12/2 61/1/2 
s 2
f 58/20/22 60/12/22 62/10/22 63/21/22 
s 1
f 62/12/19 61/10/19 56/21/19 63/20/19 
f 64/40/19 55/21/19 43/8/19 65/41/19 
s 4
f 66/42/20 44/43/20 43/44/20 55/20/20 
s 64
f 67/45/22 7/20/22 40/41/22 45/46/22 
s 1
f 44/47/19 66/48/19 67/49/19 45/50/19 
s 2
f 68/51/2 67/52/2 66/53/2 69/54/2 
s 1
f 70/51/21 68/52/21 69/53/21 71/54/21 
f 72/10/21 73/12/21 74/7/21 75/8/21 
s 2
f 73/10/1 72/12/1 76/55/1 77/56/1 
s 1
f 78/41/21 79/19/21 80/10/21 81/57/21 
s 2
f 80/12/1 82/55/1 83/56/1 81/10/1 
s 1
f 84/7/21 85/19/21 86/10/21 87/12/21 
s 2
f 86/12/1 88/55/1 89/56/1 87/10/1 
s 1
f 90/7/21 91/8/21 92/10/21 93/12/21 
s 2
f 94/58/1 95/56/1 93/10/1 92/57/1 
s 1
f 54/20/21 94/59/21 96/60/21 97/61/21 
f 98/41/21 99/8/21 100/10/21 101/57/21 
s 2
f 100/12/1 97/55/1 96/56/1 101/10/1 
f 98/62/2 102/63/2 103/64/2 99/65/2 
s 8
f 104/66/20 102/67/20 98/8/20 101/10/20 
f 105/68/22 106/69/22 107/70/22 97/71/22 
s 1
f 104/72/19 108/73/19 103/74/19 102/75/19 
s 2
f 108/76/2 104/77/2 109/78/2 105/79/2 
s 1
f 105/76/21 109/77/21 110/78/21 106/79/21 
s 2
f 111/80/2 112/81/2 91/82/2 90/83/2 
s 8
f 113/84/20 111/85/20 90/8/20 93/10/20 
f 114/86/22 92/12/22 91/7/22 112/87/22 
s 1
f 113/88/19 114/89/19 112/90/19 111/91/19 
s 2
f 114/92/2 113/93/2 115/94/2 116/95/2 
s 1
f 116/92/21 115/93/21 117/94/21 118/95/21 
s 2
f 119/96/2 85/97/2 84/98/2 120/99/2 
s 8
f 121/100/20 120/101/20 84/8/20 87/10/20 
f 122/102/22 86/12/22 85/7/22 119/103/22 
s 1
f 121/104/19 122/105/19 119/106/19 120/107/19 
s 2
f 121/108/2 123/109/2 124/110/2 122/111/2 
s 1
f 124/111/21 123/108/21 125/112/21 126/113/21 
s 2
f 127/114/2 128/115/2 79/116/2 78/117/2 
s 8
f 129/118/20 83/119/20 130/120/20 131/121/20 
f 132/122/22 133/123/22 134/70/22 82/71/22 
s 1
f 135/124/19 136/125/19 128/126/19 127/127/19 
s 2
f 136/128/2 135/129/2 129/130/2 132/131/2 
s 1
f 132/128/21 129/129/21 131/130/21 133/131/21 
s 2
f 137/132/2 138/133/2 75/134/2 74/135/2 
f 52/136/2 49/137/2 42/138/2 38/7/2 
s 8
f 139/139/20 77/119/20 140/120/20 141/140/20 
f 142/141/22 72/12/22 75/7/22 138/142/22 
s 1
f 143/143/19 142/144/19 138/145/19 137/146/19 
s 2
f 143/147/2 139/148/2 144/149/2 142/150/2 
s 1
f 144/150/21 139/147/21 141/148/21 145/149/21 
s off
f 3/3/1 28/10/1 34/151/1 4/3/1 
f 28/10/1 27/57/1 31/57/1 34/151/1 
f 27/57/1 2/2/1 1/1/1 31/57/1 
f 7/6/2 36/20/2 32/152/2 8/6/2 
f 36/20/2 35/21/2 33/21/2 32/152/2 
f 35/21/2 6/5/2 5/4/2 33/21/2 
s 16
f 39/8/20 6/21/20 48/153/20 50/154/20 
f 35/20/20 41/22/20 48/153/20 6/21/20 
s 2
f 65/155/2 39/12/2 50/156/2 51/157/2 
f 65/155/2 43/24/2 40/10/2 39/12/2 
s 16
f 47/158/22 64/21/22 65/19/22 51/159/22 
f 47/158/22 46/36/22 53/20/22 64/21/22 
s off
f 56/21/1 55/39/1 64/20/1 63/20/1 
f 64/20/1 53/160/1 58/161/1 63/20/1 
f 53/160/1 54/38/1 57/38/1 58/161/1 
f 59/12/2 19/12/2 18/10/2 60/151/2 
f 18/10/2 29/3/2 62/3/2 60/151/2 
f 29/3/2 26/2/2 61/1/2 62/3/2 
s 4
f 69/162/20 54/21/20 146/8/20 71/163/20 
f 69/162/20 66/42/20 55/20/20 54/21/20 
s 64
f 37/8/22 36/21/22 68/164/22 70/165/22 
f 7/20/22 67/45/22 68/164/22 36/21/22 
s 1
f 77/166/21 53/21/21 52/19/21 140/167/21 
f 77/166/21 76/168/21 54/20/21 53/21/21 
f 146/169/21 54/20/21 97/61/21 107/170/21 
f 147/171/21 95/172/21 88/173/21 148/174/21 
f 149/175/21 89/176/21 82/177/21 134/178/21 
f 130/179/21 83/180/21 76/168/21 150/181/21 
f 83/180/21 82/177/21 54/20/21 76/168/21 
f 89/176/21 88/173/21 54/20/21 82/177/21 
f 95/172/21 94/59/21 54/20/21 88/173/21 
f 151/182/21 96/60/21 94/59/21 152/183/21 
s 8
f 109/184/20 96/119/20 151/120/20 110/185/20 
f 109/184/20 104/66/20 101/10/20 96/119/20 
f 108/186/22 100/12/22 99/7/22 103/187/22 
f 108/186/22 105/68/22 97/71/22 100/12/22 
f 115/188/20 95/119/20 147/120/20 117/189/20 
f 115/188/20 113/84/20 93/10/20 95/119/20 
f 152/70/22 94/71/22 116/190/22 118/191/22 
f 92/12/22 114/86/22 116/190/22 94/71/22 
f 123/192/20 89/119/20 149/120/20 125/193/20 
f 123/192/20 121/100/20 87/10/20 89/119/20 
f 148/70/22 88/71/22 124/194/22 126/195/22 
f 86/12/22 122/102/22 124/194/22 88/71/22 
f 78/8/20 81/10/20 135/196/20 127/197/20 
f 83/119/20 129/118/20 135/196/20 81/10/20 
f 136/198/22 80/12/22 79/7/22 128/199/22 
f 136/198/22 132/122/22 82/71/22 80/12/22 
s 2
f 141/200/2 140/201/2 150/202/2 145/203/2 
f 151/204/2 107/205/2 106/206/2 110/207/2 
f 130/208/2 134/209/2 133/210/2 131/211/2 
f 146/212/2 37/19/2 70/213/2 71/214/2 
f 146/212/2 107/205/2 38/7/2 37/19/2 
f 151/204/2 152/215/2 38/7/2 107/205/2 
f 125/216/2 149/217/2 148/218/2 126/219/2 
f 117/220/2 147/221/2 152/215/2 118/222/2 
f 147/221/2 148/218/2 38/7/2 152/215/2 
f 149/217/2 134/209/2 38/7/2 148/218/2 
f 130/208/2 150/202/2 38/7/2 134/209/2 
f 140/201/2 52/136/2 38/7/2 150/202/2 
s 8
f 74/8/20 73/10/20 143/223/20 137/224/20 
f 77/119/20 139/139/20 143/223/20 73/10/20 
f 150/70/22 76/71/22 144/225/22 145/226/22 
f 72/12/22 142/141/22 144/225/22 76/71/22 
# 150 polygons

